<?xml version="1.0" encoding="UTF-8" standalone="no"?>
<!DOCTYPE svg PUBLIC "-//W3C//DTD SVG 1.1//EN" "http://www.w3.org/Graphics/SVG/1.1/DTD/svg11.dtd">
<!-- Microsoft Visio, SVG Export ile oluşturuldu ABONEWEB(172.16.80.8).svg Sayfa-1 ABONEWEB-172.16.80.8 -->
<svg xmlns="http://www.w3.org/2000/svg" xmlns:xlink="http://www.w3.org/1999/xlink" xmlns:ev="http://www.w3.org/2001/xml-events"
		xmlns:v="http://schemas.microsoft.com/visio/2003/SVGExtensions/" width="11.6929in" height="8.26772in"
		viewBox="0 0 841.889 595.276" xml:space="preserve" color-interpolation-filters="sRGB" class="st27">
	<v:documentProperties v:langID="1055">
		<v:userDefs>
			<v:ud v:nameU="msvNoAutoConnect" v:prompt="" v:val="VT0(1):26"/>
		</v:userDefs>
	</v:documentProperties>

	<style type="text/css">
	<![CDATA[
		.st1 {fill:#ffc000;stroke:#ffffff;stroke-linecap:round;stroke-linejoin:round;stroke-width:0.499999}
		.st2 {fill:#000000;font-family:Calibri;font-size:1.00001em}
		.st3 {fill:#5b9bd5;stroke:#ffffff;stroke-linecap:round;stroke-linejoin:round;stroke-width:0.499999}
		.st4 {fill:#aad288;stroke:#ffffff;stroke-linecap:round;stroke-linejoin:round;stroke-width:0.499999}
		.st5 {fill:#ffffff;stroke:none;stroke-width:0.999999}
		.st6 {fill:none;stroke:#ffffff;stroke-dasharray:3.5,2.5;stroke-linecap:round;stroke-linejoin:round;stroke-width:0.499999}
		.st7 {fill:#1e4a73;font-family:Calibri;font-size:0.833336em}
		.st8 {font-size:1em}
		.st9 {fill:#7effff;stroke:#ffffff;stroke-linecap:round;stroke-linejoin:round;stroke-width:0.499999}
		.st10 {marker-end:url(#mrkr4-24);stroke:#5592c9;stroke-linecap:round;stroke-linejoin:round;stroke-width:0.499999}
		.st11 {fill:#5592c9;fill-opacity:1;stroke:#5592c9;stroke-opacity:1;stroke-width:0.16556271699054}
		.st12 {fill:#00fefe;stroke:#ffffff;stroke-linecap:round;stroke-linejoin:round;stroke-width:0.499999}
		.st13 {fill:none}
		.st14 {stroke:#ffffff;stroke-linecap:butt;stroke-width:0.499999}
		.st15 {fill:none;stroke:none;stroke-linecap:round;stroke-linejoin:round;stroke-width:0.499999}
		.st16 {fill:#5b9bd5;font-family:Calibri;font-size:1.16666em}
		.st17 {fill:#73ae42;stroke:#ffffff;stroke-linecap:round;stroke-linejoin:round;stroke-width:0.499999}
		.st18 {fill:#ffffff;font-family:Calibri;font-size:0.833336em}
		.st19 {fill:#00b0f0;stroke:#ffffff;stroke-linecap:round;stroke-linejoin:round;stroke-width:0.499999}
		.st20 {fill:#ffffff;font-family:Calibri;font-size:1.00001em}
		.st21 {fill:none;stroke:#0000ff;stroke-linecap:round;stroke-linejoin:round;stroke-width:0.499999}
		.st22 {fill:#007f7f;font-family:Calibri;font-size:1.00001em}
		.st23 {fill:#dce0ef;stroke:#ffffff;stroke-linecap:round;stroke-linejoin:round;stroke-width:0.499999}
		.st24 {fill:#3f6fc5;font-family:Calibri;font-size:1.00001em}
		.st25 {fill:#5b9bd5;font-family:Calibri;font-size:1.00001em}
		.st26 {fill:#000000;font-family:Calibri;font-size:1.00001em;font-weight:bold}
		.st27 {fill:none;fill-rule:evenodd;font-size:12px;overflow:visible;stroke-linecap:square;stroke-miterlimit:3}
	]]>
	</style>

	<defs id="Markers">
		<g id="lend4">
			<path d="M 2 1 L 0 0 L 2 -1 L 2 1 " style="stroke:none"/>
		</g>
		<marker id="mrkr4-24" class="st11" v:arrowType="4" v:arrowSize="2" v:setback="0" refX="-0" orient="auto"
				markerUnits="strokeWidth" overflow="visible">
			<use xlink:href="#lend4" transform="scale(-6.0400071838466,-6.0400071838466) "/>
		</marker>
	</defs>
	<g v:mID="0" v:index="1" v:groupContext="foregroundPage">
		<v:userDefs>
			<v:ud v:nameU="msvThemeOrder" v:val="VT0(0):26"/>
		</v:userDefs>
		<title>Sayfa-1 ABONEWEB-172.16.80.8</title>
		<v:pageProperties v:drawingScale="0.0393701" v:pageScale="0.0393701" v:drawingUnits="24" v:shadowOffsetX="8.50393"
				v:shadowOffsetY="-8.50393"/>
		<v:layer v:name="Bağlayıcı" v:index="0"/>
		<g id="shape1-1" v:mID="1" v:groupContext="shape" transform="translate(68.8817,-381.384)">
			<title>Sayfa.80</title>
			<desc>crm.iett.gov.tr</desc>
			<v:userDefs/>
			<v:textBlock v:margins="rect(3.99999,3.99999,3.99999,3.99999)" v:tabSpace="42.5196"/>
			<v:textRect cx="49.6062" cy="584.805" width="99.22" height="20.9409"/>
			<rect x="0" y="574.335" width="99.2125" height="20.9409" class="st1"/>
			<text x="14.46" y="588.4" class="st2" v:langID="1055"><v:paragraph v:horizAlign="1"/><v:tabList/><v:newlineChar/>crm.iett.gov.tr<v:newlineChar/></text>		</g>
		<g id="group2-4" transform="translate(208.305,-356.417)" v:mID="2" v:groupContext="group">
			<v:custProps>
				<v:cp v:nameU="AssetNumber" v:lbl="Varlık Numarası" v:prompt="" v:type="0" v:format="" v:sortKey="Asset"
						v:invis="false" v:ask="false" v:langID="1055" v:cal="0"/>
				<v:cp v:nameU="SerialNumber" v:lbl="Seri Numarası" v:prompt="" v:type="0" v:format="" v:sortKey="Asset"
						v:invis="false" v:ask="false" v:langID="1055" v:cal="0"/>
				<v:cp v:nameU="Location" v:lbl="Konum" v:prompt="" v:type="0" v:format="" v:sortKey="Asset" v:invis="false"
						v:ask="false" v:langID="1055" v:cal="0"/>
				<v:cp v:nameU="Building" v:lbl="Bina" v:prompt="" v:type="0" v:format="" v:sortKey="Asset" v:invis="false"
						v:ask="false" v:langID="1055" v:cal="0"/>
				<v:cp v:nameU="Room" v:lbl="Oda" v:prompt="" v:type="0" v:format="" v:sortKey="Asset" v:invis="false" v:ask="false"
						v:langID="1055" v:cal="0"/>
				<v:cp v:nameU="Manufacturer" v:lbl="Üretici" v:prompt="" v:type="0" v:format="" v:sortKey="Equipment"
						v:invis="false" v:ask="false" v:langID="1055" v:cal="0"/>
				<v:cp v:nameU="ProductNumber" v:lbl="Ürün Numarası" v:prompt="" v:type="0" v:format="" v:sortKey="Equipment"
						v:invis="false" v:ask="false" v:langID="1055" v:cal="0"/>
				<v:cp v:nameU="PartNumber" v:lbl="Parça Numarası" v:prompt="" v:type="0" v:format="" v:sortKey="Equipment"
						v:invis="false" v:ask="false" v:langID="1055" v:cal="0"/>
				<v:cp v:nameU="ProductDescription" v:lbl="Ürün Açıklaması" v:prompt="" v:type="0" v:format="" v:sortKey="Equipment"
						v:invis="false" v:ask="false" v:langID="1055" v:cal="0"/>
				<v:cp v:nameU="NetworkName" v:lbl="Ağ Adı" v:prompt="" v:type="0" v:format="" v:sortKey="Network" v:invis="false"
						v:ask="false" v:langID="1055" v:cal="0"/>
				<v:cp v:nameU="IPAddress" v:lbl="IP Adresi" v:prompt="" v:type="0" v:format="" v:sortKey="Network" v:invis="false"
						v:ask="false" v:langID="1055" v:cal="0"/>
				<v:cp v:nameU="SubnetMask" v:lbl="Alt Ağ Maskesi" v:prompt="" v:type="0" v:format="" v:sortKey="Network"
						v:invis="false" v:ask="false" v:langID="1055" v:cal="0"/>
				<v:cp v:nameU="AdminInterface" v:lbl="Yönetim Arabirimi" v:prompt="" v:type="0" v:format="" v:sortKey="Network"
						v:invis="false" v:ask="false" v:langID="1055" v:cal="0"/>
				<v:cp v:nameU="NumberofPorts" v:lbl="Bağlantı Noktası Sayısı" v:prompt="" v:type="0" v:format=""
						v:sortKey="Network" v:invis="false" v:ask="false" v:langID="1055" v:cal="0"/>
				<v:cp v:nameU="CommunityString" v:lbl="Topluluk Dizesi" v:prompt="" v:type="0" v:format="" v:sortKey="Network"
						v:invis="false" v:ask="false" v:langID="1055" v:cal="0"/>
				<v:cp v:nameU="NetworkDescription" v:lbl="Ağ Açıklaması" v:prompt="" v:type="0" v:format="" v:sortKey="Network"
						v:invis="false" v:ask="false" v:langID="1055" v:cal="0"/>
				<v:cp v:nameU="MACAddress" v:lbl="MAC Adresi" v:prompt="" v:type="0" v:format="" v:sortKey="Network"
						v:invis="false" v:ask="false" v:langID="1055" v:cal="0"/>
				<v:cp v:nameU="CPU" v:lbl="CPU" v:prompt="" v:type="0" v:format="" v:sortKey="Workstation" v:invis="false"
						v:ask="false" v:langID="1055" v:cal="0"/>
				<v:cp v:nameU="Memory" v:lbl="Bellek" v:prompt="" v:type="0" v:format="" v:sortKey="Workstation" v:invis="false"
						v:ask="false" v:langID="1055" v:cal="0"/>
				<v:cp v:nameU="OperatingSystem" v:lbl="İşletim Sistemi" v:prompt="" v:type="0" v:format="" v:sortKey="Workstation"
						v:invis="false" v:ask="false" v:langID="1055" v:cal="0"/>
				<v:cp v:nameU="HardDriveSize" v:lbl="Sabit Sürücü Kapasitesi" v:prompt="" v:type="0" v:format=""
						v:sortKey="Workstation" v:invis="false" v:ask="false" v:langID="1055" v:cal="0"/>
				<v:cp v:nameU="Department" v:lbl="Bölüm" v:prompt="" v:type="0" v:format="" v:sortKey="" v:invis="false"
						v:ask="false" v:langID="1055" v:cal="0"/>
				<v:cp v:nameU="ShapeClass" v:lbl="ShapeClass" v:prompt="" v:type="0" v:format="" v:sortKey="" v:invis="true"
						v:ask="false" v:langID="1055" v:cal="0" v:val="VT4(Ekipman)"/>
				<v:cp v:nameU="BelongsTo" v:lbl="Sahibi" v:prompt="" v:type="0" v:format="" v:sortKey="" v:invis="true"
						v:ask="false" v:langID="1055" v:cal="0"/>
			</v:custProps>
			<v:userDefs>
				<v:ud v:nameU="visVersion" v:prompt="" v:val="VT0(15):26"/>
				<v:ud v:nameU="ShapeClass" v:prompt="" v:val="VT0(5):26"/>
				<v:ud v:nameU="SolSH" v:prompt="" v:val="VT4({BF0433D9-CD73-4EB5-8390-8653BE590246})"/>
				<v:ud v:nameU="visLegendShape" v:prompt="" v:val="VT0(2):26"/>
				<v:ud v:nameU="visIsConnected" v:prompt="" v:val="VT0(0):26"/>
			</v:userDefs>
			<title>Sanal sunucu</title>
			<desc>ABONEWEB(172.16.80.8) Microsoft Windows Server 2022</desc>
			<g id="shape3-5" v:mID="3" v:groupContext="shape" transform="translate(2.6246,-2.62887)">
				<title>Sayfa.82</title>
				<rect x="0" y="529.659" width="41.8884" height="65.6167" class="st3"/>
			</g>
			<g id="shape4-7" v:mID="4" v:groupContext="shape" transform="translate(33.9317,-30.64)">
				<title>Sayfa.83</title>
				<ellipse cx="2.53215" cy="592.744" rx="2.53215" ry="2.53215" class="st4"/>
			</g>
			<g id="shape5-9" v:mID="5" v:groupContext="shape" transform="translate(18.5656,-13.3806)">
				<title>Sayfa.84</title>
				<v:userDefs>
					<v:ud v:nameU="SurroundingRegionColor" v:prompt="" v:val="VT0(0):26"/>
				</v:userDefs>
				<path d="M0 595.28 L20.43 595.28 L20.43 593.64 L0 593.64 L0 595.28 ZM0 590.3 L20.43 590.3 L20.43 588.66 L0 588.66
							 L0 590.3 ZM0 585.33 L20.43 585.33 L20.43 583.68 L0 583.68 L0 585.33 Z" class="st5"/>
			</g>
			<g id="shape6-11" v:mID="6" v:groupContext="shape">
				<title>Sayfa.85</title>
				<path d="M0 595.28 L47.14 595.28 L47.14 524.41 L0 524.41 L0 595.28 Z" class="st6"/>
			</g>
			<g id="shape2-13" v:mID="2" v:groupContext="groupContent">
				<v:textBlock v:margins="rect(3.99999,3.99999,3.99999,3.99999)" v:tabSpace="42.5196"/>
				<v:textRect cx="23.5689" cy="611.272" width="140.81" height="32.0037"/>
				<text x="-27.72" y="608.27" class="st7" v:langID="1055"><v:paragraph v:horizAlign="1"/><v:tabList/>ABONEWEB(172.16.80.8)<v:newlineChar/><tspan
							x="-41.7" dy="1.2em" class="st8">Microsoft Windows Server 2022</tspan></text>			</g>
		</g>
		<g id="shape7-16" v:mID="7" v:groupContext="shape" transform="translate(664.156,-506.285)">
			<title>Sayfa.86</title>
			<desc>WAN</desc>
			<v:userDefs/>
			<v:textBlock v:margins="rect(3.99999,3.99999,3.99999,3.99999)" v:tabSpace="42.5196"/>
			<v:textRect cx="35.433" cy="584.805" width="70.87" height="20.9409"/>
			<rect x="0" y="574.335" width="70.866" height="20.9409" class="st9"/>
			<text x="22.75" y="588.4" class="st2" v:langID="1055"><v:paragraph v:horizAlign="1"/><v:tabList/>WAN</text>		</g>
		<g id="shape8-19" v:mID="8" v:groupContext="shape" v:layerMember="0" transform="translate(168.095,-391.854)">
			<title>Dinamik bağlayıcı.14</title>
			<path d="M40.21 595.28 L6.04 595.28 L0 595.28" class="st10"/>
		</g>
		<g id="shape9-25" v:mID="9" v:groupContext="shape" transform="translate(516.046,-162.585)">
			<title>Sayfa.89</title>
			<desc>Epo(10.100.2.148)</desc>
			<v:userDefs/>
			<v:textBlock v:margins="rect(3.99999,3.99999,3.99999,3.99999)" v:tabSpace="42.5196"/>
			<v:textRect cx="64.1338" cy="584.805" width="128.27" height="20.9409"/>
			<rect x="0" y="574.335" width="128.268" height="20.9409" class="st12"/>
			<text x="19.34" y="588.4" class="st2" v:langID="1055"><v:paragraph v:horizAlign="1"/><v:tabList/>Epo(10.100.2.148)</text>		</g>
		<g id="shape10-28" v:mID="10" v:groupContext="shape" transform="translate(621.637,-382.11)">
			<title>Sayfa.91</title>
			<desc>appsql_listener.iett.gov.tr (10.100.0.48)</desc>
			<v:userDefs/>
			<v:textBlock v:margins="rect(3.99999,3.99999,3.99999,3.99999)" v:tabSpace="42.5196"/>
			<v:textRect cx="85.0393" cy="579.371" width="170.08" height="31.81"/>
			<rect x="0" y="563.466" width="170.079" height="31.81" class="st9"/>
			<text x="21.95" y="575.77" class="st2" v:langID="1055"><v:paragraph v:horizAlign="1"/><v:tabList/>appsql_listener.iett.gov.tr<v:newlineChar/><tspan
						x="52.53" dy="1.2em" class="st8">(10.100.0.48)</tspan></text>		</g>
		<g id="shape11-32" v:mID="11" v:groupContext="shape" transform="translate(512.503,-105.892)">
			<title>Sayfa.93</title>
			<desc>atayol1.iett.gov.tr(10.100.24.30)</desc>
			<v:userDefs/>
			<v:textBlock v:margins="rect(3.99999,3.99999,3.99999,3.99999)" v:tabSpace="42.5196"/>
			<v:textRect cx="85.0393" cy="584.805" width="170.08" height="20.9409"/>
			<rect x="0" y="574.335" width="170.079" height="20.9409" class="st12"/>
			<text x="5.71" y="588.4" class="st2" v:langID="1055"><v:paragraph v:horizAlign="1"/><v:tabList/>atayol1.iett.gov.tr(10.100.24.30)</text>		</g>
		<g id="shape12-35" v:mID="12" v:groupContext="shape" transform="translate(512.503,-276.839)">
			<title>Sayfa.95</title>
			<desc>DC F5 Virtual IP (10.100.3.10)</desc>
			<v:userDefs/>
			<v:textBlock v:margins="rect(3.99999,3.99999,3.99999,3.99999)" v:tabSpace="42.5196"/>
			<v:textRect cx="56.6928" cy="578.427" width="113.39" height="33.6968"/>
			<rect x="0" y="561.579" width="113.386" height="33.6968" class="st9"/>
			<text x="19.04" y="574.83" class="st2" v:langID="1055"><v:paragraph v:horizAlign="1"/><v:tabList/>DC F5 Virtual IP <tspan
						x="24.18" dy="1.2em" class="st8">(10.100.3.10)</tspan></text>		</g>
		<g id="shape13-39" v:mID="13" v:groupContext="shape" v:layerMember="0" transform="translate(255.443,-391.262)">
			<title>Dinamik bağlayıcı</title>
			<path d="M0 594.69 L29.86 594.69 L29.86 595.28 L34.72 595.28 L40.76 595.28" class="st10"/>
		</g>
		<g id="shape14-44" v:mID="14" v:groupContext="shape" v:layerMember="0" transform="translate(365.974,-391.26)">
			<title>Dinamik bağlayıcı.118</title>
			<path d="M0 595.28 L7.06 595.28 L7.06 469.78 L285.54 469.78 L292.14 469.78 L298.18 469.78" class="st10"/>
		</g>
		<g id="shape15-49" v:mID="15" v:groupContext="shape" v:layerMember="0" transform="translate(331.087,-334.596)">
			<title>Dinamik bağlayıcı.119</title>
			<path d="M0 554.83 L0 595.28 L69.07 595.28 A2.365 2.365 0 1 1 73.8 595.28 L128.53 595.28 A2.3622 2.3622 0 0 1 133.25
						 595.28 L143.06 595.28 A4.13385 4.13385 0 0 1 151.32 595.28 L254.55 595.28 L254.55 531.86 L284.51 531.86
						 L290.55 531.86" class="st10"/>
		</g>
		<g id="shape16-54" v:mID="16" v:groupContext="shape" v:layerMember="0" transform="translate(365.974,-173.06)">
			<title>Dinamik bağlayıcı.121</title>
			<path d="M0 377.08 L58.8 377.08 L58.8 410.04 L93.64 410.04 A2.3622 2.3622 0 0 1 98.36 410.04 L114.07 410.04 L114.07 595.28
						 L144.03 595.28 L150.07 595.28" class="st10"/>
		</g>
		<g id="group17-59" transform="translate(295.654,-375.049)" v:mID="17" v:groupContext="group">
			<title>Sayfa.128</title>
			<g id="group18-60" transform="translate(0.545122,0)" v:mID="18" v:groupContext="group">
				<v:custProps>
					<v:cp v:nameU="AssetNumber" v:lbl="Varlık Numarası" v:prompt="" v:type="0" v:format="" v:sortKey="Asset"
							v:invis="false" v:ask="false" v:langID="1055" v:cal="0"/>
					<v:cp v:nameU="SerialNumber" v:lbl="Seri Numarası" v:prompt="" v:type="0" v:format="" v:sortKey="Asset"
							v:invis="false" v:ask="false" v:langID="1055" v:cal="0"/>
					<v:cp v:nameU="Location" v:lbl="Konum" v:prompt="" v:type="0" v:format="" v:sortKey="Asset" v:invis="false"
							v:ask="false" v:langID="1055" v:cal="0"/>
					<v:cp v:nameU="Building" v:lbl="Bina" v:prompt="" v:type="0" v:format="" v:sortKey="Asset" v:invis="false"
							v:ask="false" v:langID="1055" v:cal="0"/>
					<v:cp v:nameU="Room" v:lbl="Oda" v:prompt="" v:type="0" v:format="" v:sortKey="Asset" v:invis="false"
							v:ask="false" v:langID="1055" v:cal="0"/>
					<v:cp v:nameU="Manufacturer" v:lbl="Üretici" v:prompt="" v:type="0" v:format="" v:sortKey="Equipment"
							v:invis="false" v:ask="false" v:langID="1055" v:cal="0"/>
					<v:cp v:nameU="ProductNumber" v:lbl="Ürün Numarası" v:prompt="" v:type="0" v:format="" v:sortKey="Equipment"
							v:invis="false" v:ask="false" v:langID="1055" v:cal="0"/>
					<v:cp v:nameU="PartNumber" v:lbl="Parça Numarası" v:prompt="" v:type="0" v:format="" v:sortKey="Equipment"
							v:invis="false" v:ask="false" v:langID="1055" v:cal="0"/>
					<v:cp v:nameU="ProductDescription" v:lbl="Ürün Açıklaması" v:prompt="" v:type="0" v:format=""
							v:sortKey="Equipment" v:invis="false" v:ask="false" v:langID="1055" v:cal="0"/>
					<v:cp v:nameU="ShapeClass" v:lbl="ShapeClass" v:prompt="" v:type="0" v:format="" v:sortKey="" v:invis="true"
							v:ask="false" v:langID="1055" v:cal="0" v:val="VT4(Ekipman)"/>
					<v:cp v:nameU="ShapeType" v:lbl="ShapeType" v:prompt="" v:type="0" v:format="" v:sortKey="" v:invis="true"
							v:ask="false" v:langID="1055" v:cal="0" v:val="VT4(Cihaz)"/>
					<v:cp v:nameU="SubShapeType" v:lbl="SubShapeType" v:prompt="" v:type="0" v:format="" v:sortKey=""
							v:invis="true" v:ask="false" v:langID="1055" v:cal="0" v:val="VT4(Güvenlik Duvarı)"/>
				</v:custProps>
				<v:userDefs>
					<v:ud v:nameU="visVersion" v:prompt="" v:val="VT0(15):26"/>
					<v:ud v:nameU="ShapeClass" v:prompt="" v:val="VT0(5):26"/>
					<v:ud v:nameU="SolSH" v:prompt="" v:val="VT4({BF0433D9-CD73-4EB5-8390-8653BE590246})"/>
					<v:ud v:nameU="visLegendShape" v:prompt="" v:val="VT0(2):26"/>
				</v:userDefs>
				<title>Güvenlik Duvarı</title>
				<g id="shape19-61" v:mID="19" v:groupContext="shape">
					<title>Sayfa.114</title>
					<rect x="0" y="562.848" width="69.7758" height="32.4278" class="st3"/>
				</g>
				<g id="group20-63" transform="translate(0.25,-0.2458)" v:mID="20" v:groupContext="group">
					<v:userDefs>
						<v:ud v:nameU="SurroundingRegionColor" v:prompt="" v:val="VT0(0):26"/>
					</v:userDefs>
					<title>Sayfa.115</title>
					<g id="shape21-64" v:mID="21" v:groupContext="shape" transform="translate(0,-4.56999)">
						<title>Sayfa.21</title>
						<path d="M0 595.28 L69.28 595.28 L0 595.28 Z" class="st13"/>
						<path d="M0 595.28 L69.28 595.28" class="st14"/>
					</g>
					<g id="shape22-67" v:mID="22" v:groupContext="shape" transform="translate(0,-9.12999)">
						<title>Sayfa.22</title>
						<path d="M0 595.28 L69.28 595.28 L0 595.28 Z" class="st13"/>
						<path d="M0 595.28 L69.28 595.28" class="st14"/>
					</g>
					<g id="shape23-70" v:mID="23" v:groupContext="shape" transform="translate(0,-13.69)">
						<title>Sayfa.23</title>
						<path d="M0 595.28 L69.28 595.28 L0 595.28 Z" class="st13"/>
						<path d="M0 595.28 L69.28 595.28" class="st14"/>
					</g>
					<g id="shape24-73" v:mID="24" v:groupContext="shape" transform="translate(0,-18.25)">
						<title>Sayfa.24</title>
						<path d="M0 595.28 L69.28 595.28 L0 595.28 Z" class="st13"/>
						<path d="M0 595.28 L69.28 595.28" class="st14"/>
					</g>
					<g id="shape25-76" v:mID="25" v:groupContext="shape" transform="translate(0,-22.81)">
						<title>Sayfa.25</title>
						<path d="M0 595.28 L69.28 595.28 L0 595.28 Z" class="st13"/>
						<path d="M0 595.28 L69.28 595.28" class="st14"/>
					</g>
					<g id="shape26-79" v:mID="26" v:groupContext="shape" transform="translate(0,-27.37)">
						<title>Sayfa.26</title>
						<path d="M0 595.28 L69.28 595.28 L0 595.28 Z" class="st13"/>
						<path d="M0 595.28 L69.28 595.28" class="st14"/>
					</g>
					<g id="shape27-82" v:mID="27" v:groupContext="shape" transform="translate(17.32,0)">
						<title>Sayfa.27</title>
						<path d="M0 595.28 L0 590.71 L0 595.28 Z" class="st13"/>
						<path d="M0 595.28 L0 590.71" class="st14"/>
					</g>
					<g id="shape28-85" v:mID="28" v:groupContext="shape" transform="translate(34.64,0)">
						<title>Sayfa.28</title>
						<path d="M0 595.28 L0 590.71 L0 595.28 Z" class="st13"/>
						<path d="M0 595.28 L0 590.71" class="st14"/>
					</g>
					<g id="shape29-88" v:mID="29" v:groupContext="shape" transform="translate(51.9599,0)">
						<title>Sayfa.29</title>
						<path d="M0 595.28 L0 590.71 L0 595.28 Z" class="st13"/>
						<path d="M0 595.28 L0 590.71" class="st14"/>
					</g>
					<g id="shape30-91" v:mID="30" v:groupContext="shape" transform="translate(8.65999,-4.56999)">
						<title>Sayfa.30</title>
						<path d="M0 595.28 L0 590.72 L0 595.28 Z" class="st13"/>
						<path d="M0 595.28 L0 590.72" class="st14"/>
					</g>
					<g id="shape31-94" v:mID="31" v:groupContext="shape" transform="translate(25.98,-4.56999)">
						<title>Sayfa.31</title>
						<path d="M0 595.28 L0 590.72 L0 595.28 Z" class="st13"/>
						<path d="M0 595.28 L0 590.72" class="st14"/>
					</g>
					<g id="shape32-97" v:mID="32" v:groupContext="shape" transform="translate(43.2999,-4.56999)">
						<title>Sayfa.32</title>
						<path d="M0 595.28 L0 590.72 L0 595.28 Z" class="st13"/>
						<path d="M0 595.28 L0 590.72" class="st14"/>
					</g>
					<g id="shape33-100" v:mID="33" v:groupContext="shape" transform="translate(60.6199,-4.56999)">
						<title>Sayfa.33</title>
						<path d="M0 595.28 L0 590.72 L0 595.28 Z" class="st13"/>
						<path d="M0 595.28 L0 590.72" class="st14"/>
					</g>
					<g id="shape34-103" v:mID="34" v:groupContext="shape" transform="translate(17.32,-9.12999)">
						<title>Sayfa.34</title>
						<path d="M0 595.28 L0 590.72 L0 595.28 Z" class="st13"/>
						<path d="M0 595.28 L0 590.72" class="st14"/>
					</g>
					<g id="shape35-106" v:mID="35" v:groupContext="shape" transform="translate(34.64,-9.12999)">
						<title>Sayfa.35</title>
						<path d="M0 595.28 L0 590.72 L0 595.28 Z" class="st13"/>
						<path d="M0 595.28 L0 590.72" class="st14"/>
					</g>
					<g id="shape36-109" v:mID="36" v:groupContext="shape" transform="translate(51.9599,-9.12999)">
						<title>Sayfa.36</title>
						<path d="M0 595.28 L0 590.72 L0 595.28 Z" class="st13"/>
						<path d="M0 595.28 L0 590.72" class="st14"/>
					</g>
					<g id="shape37-112" v:mID="37" v:groupContext="shape" transform="translate(8.65999,-13.69)">
						<title>Sayfa.37</title>
						<path d="M0 595.28 L0 590.72 L0 595.28 Z" class="st13"/>
						<path d="M0 595.28 L0 590.72" class="st14"/>
					</g>
					<g id="shape38-115" v:mID="38" v:groupContext="shape" transform="translate(25.98,-13.69)">
						<title>Sayfa.38</title>
						<path d="M0 595.28 L0 590.72 L0 595.28 Z" class="st13"/>
						<path d="M0 595.28 L0 590.72" class="st14"/>
					</g>
					<g id="shape39-118" v:mID="39" v:groupContext="shape" transform="translate(43.2999,-13.69)">
						<title>Sayfa.39</title>
						<path d="M0 595.28 L0 590.72 L0 595.28 Z" class="st13"/>
						<path d="M0 595.28 L0 590.72" class="st14"/>
					</g>
					<g id="shape40-121" v:mID="40" v:groupContext="shape" transform="translate(60.6199,-13.69)">
						<title>Sayfa.40</title>
						<path d="M0 595.28 L0 590.72 L0 595.28 Z" class="st13"/>
						<path d="M0 595.28 L0 590.72" class="st14"/>
					</g>
					<g id="shape41-124" v:mID="41" v:groupContext="shape" transform="translate(17.32,-18.25)">
						<title>Sayfa.41</title>
						<path d="M0 595.28 L0 590.72 L0 595.28 Z" class="st13"/>
						<path d="M0 595.28 L0 590.72" class="st14"/>
					</g>
					<g id="shape42-127" v:mID="42" v:groupContext="shape" transform="translate(34.64,-18.25)">
						<title>Sayfa.42</title>
						<path d="M0 595.28 L0 590.72 L0 595.28 Z" class="st13"/>
						<path d="M0 595.28 L0 590.72" class="st14"/>
					</g>
					<g id="shape43-130" v:mID="43" v:groupContext="shape" transform="translate(51.9599,-18.25)">
						<title>Sayfa.43</title>
						<path d="M0 595.28 L0 590.72 L0 595.28 Z" class="st13"/>
						<path d="M0 595.28 L0 590.72" class="st14"/>
					</g>
					<g id="shape44-133" v:mID="44" v:groupContext="shape" transform="translate(8.65999,-22.81)">
						<title>Sayfa.44</title>
						<path d="M0 595.28 L0 590.72 L0 595.28 Z" class="st13"/>
						<path d="M0 595.28 L0 590.72" class="st14"/>
					</g>
					<g id="shape45-136" v:mID="45" v:groupContext="shape" transform="translate(25.98,-22.81)">
						<title>Sayfa.45</title>
						<path d="M0 595.28 L0 590.72 L0 595.28 Z" class="st13"/>
						<path d="M0 595.28 L0 590.72" class="st14"/>
					</g>
					<g id="shape46-139" v:mID="46" v:groupContext="shape" transform="translate(43.2999,-22.81)">
						<title>Sayfa.46</title>
						<path d="M0 595.28 L0 590.72 L0 595.28 Z" class="st13"/>
						<path d="M0 595.28 L0 590.72" class="st14"/>
					</g>
					<g id="shape47-142" v:mID="47" v:groupContext="shape" transform="translate(60.6199,-22.81)">
						<title>Sayfa.47</title>
						<path d="M0 595.28 L0 590.72 L0 595.28 Z" class="st13"/>
						<path d="M0 595.28 L0 590.72" class="st14"/>
					</g>
					<g id="shape48-145" v:mID="48" v:groupContext="shape" transform="translate(17.32,-27.37)">
						<title>Sayfa.48</title>
						<path d="M0 595.28 L0 590.72 L0 595.28 Z" class="st13"/>
						<path d="M0 595.28 L0 590.72" class="st14"/>
					</g>
					<g id="shape49-148" v:mID="49" v:groupContext="shape" transform="translate(34.64,-27.37)">
						<title>Sayfa.49</title>
						<path d="M0 595.28 L0 590.72 L0 595.28 Z" class="st13"/>
						<path d="M0 595.28 L0 590.72" class="st14"/>
					</g>
					<g id="shape50-151" v:mID="50" v:groupContext="shape" transform="translate(51.9599,-27.37)">
						<title>Sayfa.50</title>
						<path d="M0 595.28 L0 590.72 L0 595.28 Z" class="st13"/>
						<path d="M0 595.28 L0 590.72" class="st14"/>
					</g>
				</g>
			</g>
			<g id="shape51-154" v:mID="51" v:groupContext="shape" transform="translate(0,-33.9074)">
				<title>Sayfa.124</title>
				<desc>Firewall</desc>
				<v:userDefs/>
				<v:textBlock v:margins="rect(3.99999,3.99999,3.99999,3.99999)" v:tabSpace="42.5196"/>
				<v:textRect cx="31.748" cy="589.654" width="63.5" height="11.2441"/>
				<rect x="0" y="584.032" width="63.496" height="11.2441" class="st15"/>
				<text x="9.43" y="593.85" class="st16" v:langID="1055"><v:paragraph v:horizAlign="1"/><v:tabList/>Firewall</text>			</g>
		</g>
		<g id="shape52-157" v:mID="52" v:groupContext="shape" transform="translate(68.8817,-356.421)">
			<title>Sayfa.133</title>
			<desc>empati.iett.gov.tr</desc>
			<v:userDefs/>
			<v:textBlock v:margins="rect(3.99999,3.99999,3.99999,3.99999)" v:tabSpace="42.5196"/>
			<v:textRect cx="49.6062" cy="584.805" width="99.22" height="20.9409"/>
			<rect x="0" y="574.335" width="99.2125" height="20.9409" class="st1"/>
			<text x="6.69" y="588.4" class="st2" v:langID="1055"><v:paragraph v:horizAlign="1"/><v:tabList/><v:newlineChar/>empati.iett.gov.tr<v:newlineChar/></text>		</g>
		<g id="shape53-160" v:mID="53" v:groupContext="shape" v:layerMember="0" transform="translate(168.095,-366.89)">
			<title>Dinamik bağlayıcı.138</title>
			<path d="M40.21 570.32 L10.35 570.32 L10.35 595.28 L6.04 595.28 L0 595.28" class="st10"/>
		</g>
		<g id="shape54-165" v:mID="54" v:groupContext="shape" transform="translate(713.763,-424.631)">
			<title>Çember.139</title>
			<desc>Https (443)</desc>
			<v:userDefs>
				<v:ud v:nameU="visVersion" v:val="VT0(15):26"/>
			</v:userDefs>
			<v:textBlock v:margins="rect(3.99999,3.99999,3.99999,3.99999)" v:tabSpace="42.5196"/>
			<v:textRect cx="24.8031" cy="570.473" width="43.41" height="37.2046"/>
			<path d="M0 570.47 A24.805 24.805 0 0 1 49.61 570.47 A24.805 24.805 0 1 1 0 570.47 Z" class="st17"/>
			<text x="13.76" y="567.47" class="st18" v:langID="1055"><v:paragraph v:horizAlign="1"/><v:tabList/>Https<v:newlineChar/><tspan
						x="14.17" dy="1.2em" class="st8">(443)</tspan></text>		</g>
		<g id="shape55-169" v:mID="55" v:groupContext="shape" transform="translate(632.267,-424.631)">
			<title>Çember.140</title>
			<desc>Http (80)</desc>
			<v:userDefs>
				<v:ud v:nameU="visVersion" v:val="VT0(15):26"/>
			</v:userDefs>
			<v:textBlock v:margins="rect(3.99999,3.99999,3.99999,3.99999)" v:tabSpace="42.5196"/>
			<v:textRect cx="24.8031" cy="570.473" width="43.41" height="37.2046"/>
			<path d="M0 570.47 A24.805 24.805 0 0 1 49.61 570.47 A24.805 24.805 0 1 1 0 570.47 Z" class="st17"/>
			<text x="15.71" y="567.47" class="st18" v:langID="1055"><v:paragraph v:horizAlign="1"/><v:tabList/>Http<v:newlineChar/><tspan
						x="16.7" dy="1.2em" class="st8">(80)</tspan></text>		</g>
		<g id="shape56-173" v:mID="56" v:groupContext="shape" transform="translate(706.676,-318.332)">
			<title>Çember.141</title>
			<desc>MSSQL (1433)</desc>
			<v:userDefs>
				<v:ud v:nameU="visVersion" v:val="VT0(15):26"/>
			</v:userDefs>
			<v:textBlock v:margins="rect(3.99999,3.99999,3.99999,3.99999)" v:tabSpace="42.5196"/>
			<v:textRect cx="24.8031" cy="570.473" width="43.41" height="37.2046"/>
			<path d="M0 570.47 A24.805 24.805 0 0 1 49.61 570.47 A24.805 24.805 0 1 1 0 570.47 Z" class="st17"/>
			<text x="10.47" y="567.47" class="st18" v:langID="1055"><v:paragraph v:horizAlign="1"/><v:tabList/>MSSQL<v:newlineChar/><tspan
						x="11.63" dy="1.2em" class="st8">(1433)</tspan></text>		</g>
		<g id="shape57-177" v:mID="57" v:groupContext="shape" v:layerMember="0" transform="translate(657.07,-474.241)">
			<title>Dinamik bağlayıcı.145</title>
			<path d="M42.52 563.24 L42.52 581.24 L0 581.24 L0 589.24 L0 595.28" class="st10"/>
		</g>
		<g id="shape58-182" v:mID="58" v:groupContext="shape" transform="translate(547.936,-215.735)">
			<title>Çember.147</title>
			<desc>LDAP (389)</desc>
			<v:userDefs>
				<v:ud v:nameU="visVersion" v:val="VT0(15):26"/>
			</v:userDefs>
			<v:textBlock v:margins="rect(3.99999,3.99999,3.99999,3.99999)" v:tabSpace="42.5196"/>
			<v:textRect cx="24.8031" cy="570.473" width="43.41" height="37.2046"/>
			<path d="M0 570.47 A24.805 24.805 0 0 1 49.61 570.47 A24.805 24.805 0 1 1 0 570.47 Z" class="st17"/>
			<text x="14.15" y="567.47" class="st18" v:langID="1055"><v:paragraph v:horizAlign="1"/><v:tabList/>LDAP<v:newlineChar/><tspan
						x="14.17" dy="1.2em" class="st8">(389)</tspan></text>		</g>
		<g id="shape59-186" v:mID="59" v:groupContext="shape" transform="translate(686.125,-162.426)">
			<title>Çember.149</title>
			<desc>Https (443)</desc>
			<v:userDefs>
				<v:ud v:nameU="visVersion" v:val="VT0(15):26"/>
			</v:userDefs>
			<v:textBlock v:margins="rect(3.99999,3.99999,3.99999,3.99999)" v:tabSpace="42.5196"/>
			<v:textRect cx="24.8031" cy="570.473" width="43.41" height="37.2046"/>
			<path d="M0 570.47 A24.805 24.805 0 0 1 49.61 570.47 A24.805 24.805 0 1 1 0 570.47 Z" class="st17"/>
			<text x="13.76" y="567.47" class="st18" v:langID="1055"><v:paragraph v:horizAlign="1"/><v:tabList/>Https<v:newlineChar/><tspan
						x="14.17" dy="1.2em" class="st8">(443)</tspan></text>		</g>
		<g id="shape60-190" v:mID="60" v:groupContext="shape" transform="translate(516.046,-190.931)">
			<title>Sayfa.150</title>
			<desc>IBBLAN(172.16.16.7)</desc>
			<v:userDefs/>
			<v:textBlock v:margins="rect(3.99999,3.99999,3.99999,3.99999)" v:tabSpace="42.5196"/>
			<v:textRect cx="64.1338" cy="584.805" width="128.27" height="20.9409"/>
			<rect x="0" y="574.335" width="128.268" height="20.9409" class="st12"/>
			<text x="13.72" y="588.4" class="st2" v:langID="1055"><v:paragraph v:horizAlign="1"/><v:tabList/>IBBLAN(172.16.16.7)</text>		</g>
		<g id="shape61-193" v:mID="61" v:groupContext="shape" v:layerMember="0" transform="translate(365.974,-201.4)">
			<title>Dinamik bağlayıcı.153</title>
			<path d="M0 405.42 L58.8 405.42 L58.8 438.38 L93.64 438.38 A2.3622 2.3622 0 0 1 98.36 438.38 L114.07 438.38 L114.07 595.28
						 L144.03 595.28 L150.07 595.28" class="st10"/>
		</g>
		<g id="shape62-198" v:mID="62" v:groupContext="shape" v:layerMember="0" transform="translate(699.59,-449.431)">
			<title>Dinamik bağlayıcı.157</title>
			<path d="M0 538.43 L0 595.28 L8.13 595.28 L14.17 595.28" class="st10"/>
		</g>
		<g id="shape63-203" v:mID="63" v:groupContext="shape" v:layerMember="0" transform="translate(731.483,-367.936)">
			<title>Dinamik bağlayıcı.158</title>
			<path d="M0 581.11 L0 589.24 L0 595.28" class="st10"/>
		</g>
		<g id="shape64-208" v:mID="64" v:groupContext="shape" transform="translate(700.298,-91.5603)">
			<title>Çember.159</title>
			<desc>Backend (8096)</desc>
			<v:userDefs>
				<v:ud v:nameU="visVersion" v:val="VT0(15):26"/>
			</v:userDefs>
			<v:textBlock v:margins="rect(3.99999,3.99999,3.99999,3.99999)" v:tabSpace="42.5196"/>
			<v:textRect cx="24.8031" cy="570.473" width="43.41" height="37.2046"/>
			<path d="M0 570.47 A24.805 24.805 0 0 1 49.61 570.47 A24.805 24.805 0 1 1 0 570.47 Z" class="st17"/>
			<text x="7.56" y="567.47" class="st18" v:langID="1055"><v:paragraph v:horizAlign="1"/><v:tabList/>Backend <tspan
						x="11.63" dy="1.2em" class="st8">(8096)</tspan></text>		</g>
		<g id="shape65-212" v:mID="65" v:groupContext="shape" v:layerMember="0" transform="translate(365.974,-116.36)">
			<title>Dinamik bağlayıcı.161</title>
			<path d="M0 320.38 L58.8 320.38 L58.8 353.34 L93.64 353.34 A2.3622 2.3622 0 0 1 98.36 353.34 L110.53 353.34 L110.53 595.28
						 L140.49 595.28 L146.53 595.28" class="st10"/>
		</g>
		<g id="shape66-217" v:mID="66" v:groupContext="shape" v:layerMember="0" transform="translate(682.582,-116.362)">
			<title>Dinamik bağlayıcı.162</title>
			<path d="M0 595.28 L11.68 595.28 L17.72 595.28" class="st10"/>
		</g>
		<g id="shape67-222" v:mID="67" v:groupContext="shape" v:layerMember="0" transform="translate(644.314,-187.228)">
			<title>Dinamik bağlayıcı.165</title>
			<path d="M0 581.11 L18 581.11 L18 595.28 L35.77 595.28 L41.81 595.28" class="st10"/>
		</g>
		<g id="shape68-227" v:mID="68" v:groupContext="shape" v:layerMember="0" transform="translate(644.314,-173.051)">
			<title>Dinamik bağlayıcı.166</title>
			<path d="M0 595.28 L18 595.28 L18 581.1 L35.77 581.1 L41.81 581.1" class="st10"/>
		</g>
		<g id="shape69-232" v:mID="69" v:groupContext="shape" v:layerMember="0" transform="translate(572.743,-265.342)">
			<title>Dinamik bağlayıcı.167</title>
			<path d="M0 583.78 L0 589.24 L0 595.28" class="st10"/>
		</g>
		<g id="shape70-237" v:mID="70" v:groupContext="shape" v:layerMember="0" transform="translate(365.974,-293.69)">
			<title>Dinamik bağlayıcı.168</title>
			<path d="M0 497.71 L36.55 497.71 L36.55 595.28 L93.64 595.28 A2.3622 2.3622 0 0 1 98.36 595.28 L108.17 595.28 A4.13385
						 4.13385 0 0 1 116.43 595.28 L140.49 595.28 L146.53 595.28" class="st10"/>
		</g>
		<g id="shape71-242" v:mID="71" v:groupContext="shape" transform="translate(83.055,-421.088)">
			<title>Çember.57</title>
			<desc>Https (443)</desc>
			<v:userDefs>
				<v:ud v:nameU="visVersion" v:val="VT0(15):26"/>
			</v:userDefs>
			<v:textBlock v:margins="rect(3.99999,3.99999,3.99999,3.99999)" v:tabSpace="42.5196"/>
			<v:textRect cx="24.8031" cy="570.473" width="43.41" height="37.2046"/>
			<path d="M0 570.47 A24.805 24.805 0 0 1 49.61 570.47 A24.805 24.805 0 0 1 0 570.47 Z" class="st19"/>
			<text x="11.55" y="566.87" class="st20" v:langID="1055"><v:paragraph v:horizAlign="1"/><v:tabList/>Https<v:newlineChar/><tspan
						x="12.04" dy="1.2em" class="st8">(443)</tspan></text>		</g>
		<g id="shape72-246" v:mID="72" v:groupContext="shape" transform="translate(125.575,-421.088)">
			<title>Çember.78</title>
			<desc>Http (80)</desc>
			<v:userDefs>
				<v:ud v:nameU="visVersion" v:val="VT0(15):26"/>
			</v:userDefs>
			<v:textBlock v:margins="rect(3.99999,3.99999,3.99999,3.99999)" v:tabSpace="42.5196"/>
			<v:textRect cx="24.8031" cy="570.473" width="43.41" height="37.2046"/>
			<path d="M0 570.47 A24.805 24.805 0 0 1 49.61 570.47 A24.805 24.805 0 0 1 0 570.47 Z" class="st19"/>
			<text x="13.89" y="566.87" class="st20" v:langID="1055"><v:paragraph v:horizAlign="1"/><v:tabList/>Http<v:newlineChar/><tspan
						x="15.08" dy="1.2em" class="st8">(80)</tspan></text>		</g>
		<g id="shape73-250" v:mID="73" v:groupContext="shape" transform="translate(79.5117,-479.34)">
			<title>Sayfa.134</title>
			<desc>Sunucu lokalde IIS</desc>
			<v:userDefs/>
			<v:textBlock v:margins="rect(3.99999,3.99999,3.99999,3.99999)" v:tabSpace="42.5196"/>
			<v:textRect cx="49.6062" cy="583.654" width="99.22" height="23.2441"/>
			<rect x="0" y="572.032" width="99.2125" height="23.2441" class="st21"/>
			<text x="5.55" y="587.25" class="st22" v:langID="1055"><v:paragraph v:horizAlign="1"/><v:tabList/>Sunucu lokalde IIS</text>		</g>
		<g id="shape74-253" v:mID="74" v:groupContext="shape" transform="translate(650.834,-290.303)">
			<title>Sayfa.175</title>
			<desc>DC1(10.100.3.11)</desc>
			<v:userDefs/>
			<v:textBlock v:margins="rect(3.99999,3.99999,3.99999,3.99999)" v:tabSpace="42.5196"/>
			<v:textRect cx="58.3936" cy="584.805" width="116.79" height="20.9409"/>
			<rect x="0" y="574.335" width="116.787" height="20.9409" class="st9"/>
			<text x="15.95" y="588.4" class="st2" v:langID="1055"><v:paragraph v:horizAlign="1"/><v:tabList/>DC1(10.100.3.11)</text>		</g>
		<g id="shape75-256" v:mID="75" v:groupContext="shape" transform="translate(650.834,-262.276)">
			<title>Sayfa.176</title>
			<desc>DC2(10.100.3.12)</desc>
			<v:userDefs/>
			<v:textBlock v:margins="rect(3.99999,3.99999,3.99999,3.99999)" v:tabSpace="42.5196"/>
			<v:textRect cx="58.3936" cy="584.805" width="116.79" height="20.9409"/>
			<rect x="0" y="574.335" width="116.787" height="20.9409" class="st9"/>
			<text x="15.95" y="588.4" class="st2" v:langID="1055"><v:paragraph v:horizAlign="1"/><v:tabList/>DC2(10.100.3.12)    </text>		</g>
		<g id="shape76-259" v:mID="76" v:groupContext="shape" v:layerMember="0" transform="translate(625.889,-293.69)">
			<title>Dinamik bağlayıcı.177</title>
			<path d="M0 595.28 L10.87 595.28 L10.87 588.2 L18.9 588.2 L24.94 588.2" class="st10"/>
		</g>
		<g id="shape77-264" v:mID="77" v:groupContext="shape" v:layerMember="0" transform="translate(625.889,-272.743)">
			<title>Dinamik bağlayıcı.178</title>
			<path d="M0 574.34 L10.87 574.34 L10.87 595.28 L18.9 595.28 L24.94 595.28" class="st10"/>
		</g>
		<g id="shape78-269" v:mID="78" v:groupContext="shape" transform="translate(497.975,-40.9618)">
			<title>Sayfa.183</title>
			<desc>Trellix_ERC2(10.100.2.197)</desc>
			<v:userDefs/>
			<v:textBlock v:margins="rect(3.99999,3.99999,3.99999,3.99999)" v:tabSpace="42.5196"/>
			<v:textRect cx="85.0393" cy="583.654" width="170.08" height="23.2441"/>
			<rect x="0" y="572.032" width="170.079" height="23.2441" class="st12"/>
			<text x="19.34" y="587.25" class="st2" v:langID="1055"><v:paragraph v:horizAlign="1"/><v:tabList/>Trellix_ERC2(10.100.2.197)    </text>		</g>
		<g id="shape79-272" v:mID="79" v:groupContext="shape" transform="translate(695.692,-27.7808)">
			<title>Circle.79</title>
			<desc>Trellix (8081)</desc>
			<v:userDefs>
				<v:ud v:nameU="visVersion" v:val="VT0(15):26"/>
			</v:userDefs>
			<v:textBlock v:margins="rect(3.99999,3.99999,3.99999,3.99999)" v:tabSpace="42.5196"/>
			<v:textRect cx="24.8031" cy="570.473" width="43.41" height="37.2046"/>
			<path d="M0 570.47 A24.805 24.805 0 0 1 49.61 570.47 A24.805 24.805 0 1 1 0 570.47 Z" class="st17"/>
			<text x="12.53" y="567.47" class="st18" v:langID="1055"><v:paragraph v:horizAlign="1"/><v:tabList/>Trellix<v:newlineChar/><tspan
						x="11.63" dy="1.2em" class="st8">(8081)</tspan></text>		</g>
		<g id="shape80-276" v:mID="80" v:groupContext="shape" v:layerMember="0" transform="translate(668.054,-52.5824)">
			<title>Dinamik bağlayıcı.93</title>
			<path d="M0 595.28 L21.6 595.28 L27.64 595.28" class="st10"/>
		</g>
		<g id="shape81-281" v:mID="81" v:groupContext="shape" v:layerMember="0" transform="translate(365.974,-52.5843)">
			<title>Dinamik bağlayıcı.186</title>
			<path d="M0 252.47 L4.7 252.47 A2.365 2.365 0 1 1 9.43 252.47 L65.88 252.47 L65.88 282.48 L96 282.48 L96 595.28 L125.96
						 595.28 L132 595.28" class="st10"/>
		</g>
		<g id="shape82-286" v:mID="82" v:groupContext="shape" transform="translate(409.038,-479.34)">
			<title>Sayfa.187</title>
			<desc>Tieserver(10.100.2.95-96)</desc>
			<v:userDefs/>
			<v:textBlock v:margins="rect(3.99999,3.99999,3.99999,3.99999)" v:tabSpace="42.5196"/>
			<v:textRect cx="72.992" cy="583.654" width="145.99" height="23.2441"/>
			<rect x="0" y="572.032" width="145.984" height="23.2441" class="st12"/>
			<text x="10.07" y="587.25" class="st2" v:langID="1055"><v:paragraph v:horizAlign="1"/><v:tabList/>Tieserver(10.100.2.95-96)</text>		</g>
		<g id="shape83-289" v:mID="83" v:groupContext="shape" v:layerMember="0" transform="translate(365.974,-395.394)">
			<title>Dinamik bağlayıcı.188</title>
			<path d="M0 595.28 L4.7 595.28 A2.365 2.365 0 0 1 9.43 595.28 L18.5 595.28 L18.5 499.71 L37.02 499.71 L43.06 499.71"
					class="st10"/>
		</g>
		<g id="shape84-294" v:mID="84" v:groupContext="shape" transform="translate(460.771,-394.3)">
			<title>Çember.79</title>
			<desc>Trellix Dxl Broker (8883)</desc>
			<v:userDefs>
				<v:ud v:nameU="visVersion" v:val="VT0(15):26"/>
			</v:userDefs>
			<v:textBlock v:margins="rect(3.99999,3.99999,3.99999,3.99999)" v:tabSpace="42.5196"/>
			<v:textRect cx="35.433" cy="559.844" width="62.01" height="53.1495"/>
			<path d="M0 559.84 A35.4349 35.4349 0 0 1 70.87 559.84 A35.4349 35.4349 0 1 1 0 559.84 Z" class="st17"/>
			<text x="15.64" y="550.84" class="st18" v:langID="1055"><v:paragraph v:horizAlign="1"/><v:tabList/>Trellix Dxl <tspan
						x="21.83" dy="1.2em" class="st8">Broker<v:newlineChar/></tspan><tspan x="22.26" dy="1.2em" class="st8">(8883)</tspan></text>		</g>
		<g id="shape85-299" v:mID="85" v:groupContext="shape" v:layerMember="0" transform="translate(496.207,-465.165)">
			<title>Dinamik bağlayıcı.190</title>
			<path d="M0 581.11 L0 589.24 L0 595.28" class="st10"/>
		</g>
		<g id="shape86-304" v:mID="86" v:groupContext="shape" transform="translate(18,-226.206)">
			<title>Sayfa.196</title>
			<desc>crm.iett.gov.tr 10.100.24.12, empati.iett.gov.tr 10.100.24.10...</desc>
			<v:userDefs/>
			<v:textBlock v:margins="rect(3.99999,3.99999,3.99999,3.99999)" v:tabSpace="42.5196"/>
			<v:textRect cx="145.276" cy="559.843" width="290.56" height="70.866"/>
			<rect x="0" y="524.41" width="290.551" height="70.866" class="st15"/>
			<text x="74.01" y="527.44" class="st2" v:langID="1055"><v:paragraph v:horizAlign="1"/><v:tabList/>crm.iett.gov.tr  10.100.24.12,<v:newlineChar/><tspan
						x="69.09" dy="1.2em" class="st8">empati.iett.gov.tr 10.100.24.10 <v:newlineChar/></tspan><tspan x="5.88"
						dy="1.2em" class="st8"> </tspan>ip adresini çözmektedir.Sunucu üzerinde IIS ile 80 ve 443 <tspan x="20.21"
						dy="1.2em" class="st8">portları her iki sayfa için de çalışmaktadır.Sunucuda </tspan><tspan x="48.84"
						dy="1.2em" class="st8">sadece empati.iett.gov.tr çalışmaktadır.</tspan><v:newlineChar/></text>		</g>
		<g id="shape87-311" v:mID="87" v:groupContext="shape" transform="translate(40.5354,-34.8674)">
			<title>Sayfa.198</title>
			<desc>80,443,445,135,139,3389,5357,5985, 8081, 10050,44317,44399,47...</desc>
			<v:userDefs/>
			<v:textBlock v:margins="rect(3.99999,3.99999,3.99999,3.99999)" v:tabSpace="42.5196"/>
			<v:textRect cx="113.386" cy="559.843" width="226.78" height="70.866"/>
			<rect x="0" y="524.41" width="226.772" height="70.866" class="st23"/>
			<text x="22.34" y="541.84" class="st24" v:langID="1055"><v:paragraph v:horizAlign="1"/><v:tabList/>80,443,445,135,139,3389,5357,5985,<v:newlineChar/><tspan
						x="14.52" dy="1.2em" class="st8">8081, 10050,44317,44399,47001,49664</tspan>-<tspan x="96.68" dy="1.2em"
						class="st8">49669,<v:newlineChar/></tspan><tspan x="4.97" dy="1.2em" class="st8">49672,49679,59175,61202 ve 61214 portları</tspan></text>		</g>
		<g id="shape88-317" v:mID="88" v:groupContext="shape" transform="translate(40.5354,-119.907)">
			<title>Sayfa.199</title>
			<desc>Lokalde dışarıdan atılacak istekler için dinlediği açık portl...</desc>
			<v:userDefs/>
			<v:textBlock v:margins="rect(3.99999,3.99999,3.99999,3.99999)" v:tabSpace="42.5196"/>
			<v:textRect cx="113.386" cy="559.843" width="226.78" height="70.866"/>
			<rect x="0" y="524.41" width="226.772" height="70.866" class="st23"/>
			<text x="21.77" y="556.24" class="st24" v:langID="1055"><v:paragraph v:horizAlign="1"/><v:tabList/>Lokalde dışarıdan atılacak istekler için <tspan
						x="11.33" dy="1.2em" class="st8">dinlediği açık portlar aşağıda belirtilmiştir.  </tspan>  </text>		</g>
		<g id="shape89-321" v:mID="89" v:groupContext="shape" transform="translate(291.402,-33.3528)">
			<title>Sayfa.202</title>
			<desc>80 (TCP) → HTTP (Web sunucuları için) 443 (TCP) → HTTPS (Şifr...</desc>
			<v:userDefs/>
			<v:textBlock v:margins="rect(3.99999,3.99999,3.99999,3.99999)" v:tabSpace="42.5196"/>
			<v:textRect cx="80.0786" cy="491.683" width="160.16" height="207.185"/>
			<rect x="0" y="388.091" width="160.157" height="207.185" class="st23"/>
			<text x="24.3" y="401.68" class="st24" v:langID="1055"><v:paragraph v:horizAlign="1"/><v:tabList/>80 (TCP) → HTTP (Web <tspan
						x="43.25" dy="1.2em" class="st8">sunucuları için)<v:newlineChar/></tspan><tspan x="4.4" dy="1.2em"
						class="st8">443 (TCP) </tspan>→ HTTPS (Şifreli web <tspan x="18.25" dy="1.2em" class="st8">trafiği, SSL/TLS ile güvenli </tspan><tspan
						x="52.28" dy="1.2em" class="st8">bağlantılar)<v:newlineChar/></tspan><tspan x="11.45" dy="1.2em"
						class="st8">445 (TCP) </tspan>→ SMB (Windows <tspan x="23.64" dy="1.2em" class="st8">dosya paylaşımı, Active </tspan><tspan
						x="8.29" dy="1.2em" class="st8">Directory ve uzaktan yönetim </tspan><tspan x="69.82" dy="1.2em"
						class="st8">için)<v:newlineChar/></tspan><tspan x="13.04" dy="1.2em" class="st8">135 (TCP) </tspan>→ RPC (Windows <tspan
						x="17.18" dy="1.2em" class="st8">hizmetleri, DCOM ve uzak </tspan><tspan x="48.26" dy="1.2em" class="st8">yönetim için)<v:newlineChar/></tspan><tspan
						x="15.66" dy="1.2em" class="st8">139 (TCP) </tspan>→ NetBIOS (Eski <tspan x="24.14" dy="1.2em" class="st8">Windows ağ paylaşımı)</tspan></text>		</g>
		<g id="shape90-337" v:mID="90" v:groupContext="shape" transform="translate(40.5354,-195.875)">
			<title>Sayfa.204</title>
			<desc>Localhost:5161 ve localhost:7161 portları</desc>
			<v:userDefs/>
			<v:textBlock v:margins="rect(3.99999,3.99999,3.99999,3.99999)" v:tabSpace="42.5196"/>
			<v:textRect cx="113.386" cy="583.654" width="226.78" height="23.2441"/>
			<rect x="0" y="572.032" width="226.772" height="23.2441" class="st15"/>
			<text x="12.79" y="587.25" class="st25" v:langID="1055"><v:paragraph v:horizAlign="1"/><v:tabList/>Localhost:5161 ve localhost:7161 portları</text>		</g>
		<g id="shape91-340" v:mID="91" v:groupContext="shape" transform="translate(664.156,-545.102)">
			<title>Sayfa.207</title>
			<desc>Date : 26.01.2025</desc>
			<v:userDefs/>
			<v:textBlock v:margins="rect(3.99999,3.99999,3.99999,3.99999)" v:tabSpace="42.5196"/>
			<v:textRect cx="70.866" cy="585.354" width="141.74" height="19.8425"/>
			<rect x="0" y="575.433" width="141.732" height="19.8425" class="st15"/>
			<text x="27.63" y="588.95" class="st25" v:langID="1055"><v:paragraph v:horizAlign="1"/><v:tabList/>Date : 26.01.2025</text>		</g>
		<g id="shape92-343" v:mID="92" v:groupContext="shape" transform="translate(18,-530.929)">
			<title>Sayfa.208</title>
			<desc>ABONEWEB (172.16.80.8)</desc>
			<v:userDefs/>
			<v:textBlock v:margins="rect(3.99999,3.99999,3.99999,3.99999)" v:tabSpace="42.5196"/>
			<v:textRect cx="58.1101" cy="572.102" width="116.23" height="46.3464"/>
			<rect x="0" y="548.929" width="116.22" height="46.3464" class="st23"/>
			<text x="28.45" y="568.5" class="st26" v:langID="1055"><v:paragraph v:horizAlign="1"/><v:tabList/>ABONEWEB<v:newlineChar/><tspan
						x="25.24" dy="1.2em" class="st8">(172.16.80.8)</tspan></text>		</g>
	</g>
</svg>
